# xmcd
#
# Track frame offsets:
#       150
#       19298
#       36800
#       56773
#       72701
#       99500
#       111992
#       125181
#       142646
#       166634
#       184526
#       197686
#       219601
#       268313
#       303230
#
# Disc length: 4562 seconds
#
# Revision: 0
# Processed by: cddbd v1.4PL0 Copyright (c) Steve Scherf et al.
# Submitted via: WhereIsIt 3.26
#
DISCID=de11d00f
DTITLE=Compromise Blue - 10 Years of Party
DYEAR=1900
DGENRE=
TTITLE0=Keep ready
TTITLE1=24 hour star
TTITLE2=Time is over
TTITLE3=Private man
TTITLE4=Shadows
TTITLE5=7 up
TTITLE6=Good morning little schoolgirl
TTITLE7=I just want to make love to you
TTITLE8=She's looking good
TTITLE9=I'm real
TTITLE10=Dimples
TTITLE11=Brick house
TTITLE12=Lee Ann
TTITLE13=Sweet home Chicago
TTITLE14=Dr. Feelgood
EXTD=
EXTT0=
EXTT1=
EXTT2=
EXTT3=
EXTT4=
EXTT5=
EXTT6=
EXTT7=
EXTT8=
EXTT9=
EXTT10=
EXTT11=
EXTT12=
EXTT13=
EXTT14=
PLAYORDER=
